<?xml version="1.0" standalone="no"?>
<!DOCTYPE svg PUBLIC "-//W3C//DTD SVG 20010904//EN"
 "http://www.w3.org/TR/2001/REC-SVG-20010904/DTD/svg10.dtd">
<svg version="1.0" xmlns="http://www.w3.org/2000/svg"
 width="500px" height="500px" viewBox="0 0 4715.000000 4776.000000"
 preserveAspectRatio="xMidYMid meet">

<g transform="translate(0.000000,4776.000000) scale(0.100000,-0.100000)"
fill="#000000" stroke="none">
<path d="M21680 47740 c-240 -51 -494 -182 -750 -386 -109 -87 -392 -370 -499
-499 -333 -403 -629 -874 -916 -1459 l-132 -268 -111 -58 c-257 -135 -554
-349 -817 -586 -58 -53 -108 -94 -109 -93 -2 2 -11 36 -20 74 -52 211 -181
345 -334 345 -115 0 -355 -102 -502 -213 -105 -80 -273 -252 -361 -371 -78
-104 -166 -243 -239 -377 -51 -92 -51 -93 -46 -49 3 25 11 111 18 192 19 232
-11 386 -81 422 -40 21 -57 20 -117 -8 -193 -90 -674 -682 -674 -830 0 -29 5
-39 25 -48 42 -19 68 2 135 116 106 177 260 336 326 336 32 0 60 -30 76 -82
22 -73 15 -437 -15 -833 -77 -992 -117 -1295 -363 -2769 -194 -1166 -220
-1352 -424 -3071 -45 -374 -103 -858 -130 -1075 -27 -217 -47 -396 -45 -398 2
-3 19 7 38 21 l33 25 18 158 c122 1094 289 2161 671 4304 180 1011 222 1268
340 2095 36 253 77 511 91 573 84 375 197 679 347 934 250 424 643 669 818
511 83 -75 119 -200 119 -410 0 -134 -19 -295 -46 -397 -9 -34 -38 -107 -66
-164 -39 -82 -63 -117 -117 -172 -38 -39 -75 -70 -83 -70 -7 0 -29 30 -47 67
-74 151 -161 209 -255 173 -44 -16 -113 -88 -137 -143 -20 -43 -24 -69 -24
-147 0 -83 3 -101 25 -140 30 -53 99 -103 173 -125 148 -44 286 12 446 181
192 202 333 481 396 784 23 108 45 275 45 346 l0 61 115 112 c354 343 751 531
1158 548 l137 6 -248 -249 c-251 -252 -386 -405 -539 -611 -233 -314 -379
-618 -428 -896 -23 -131 -17 -337 15 -452 30 -111 105 -265 177 -360 71 -94
225 -245 303 -296 134 -88 314 -157 469 -179 138 -21 352 -8 491 28 267 69
480 193 679 394 275 279 421 590 421 897 0 53 -7 123 -14 156 -8 33 -11 61 -6
63 25 9 202 126 292 194 223 166 506 448 696 693 l23 30 -6 -57 c-3 -31 -1
-92 5 -137 35 -260 161 -376 405 -373 306 3 638 169 1009 506 50 45 87 77 84
71 -3 -5 -72 -156 -153 -335 -275 -607 -636 -1386 -1215 -2620 -361 -769 -859
-1743 -1452 -2838 -61 -112 -108 -205 -105 -208 3 -3 21 -2 40 1 40 8 15 -34
480 800 668 1198 1129 2067 1619 3055 971 1957 1123 2257 1426 2816 l82 152
213 5 c243 6 366 27 572 97 284 97 589 284 775 475 46 48 51 55 30 51 -14 -3
-77 -17 -140 -30 l-115 -25 -60 -59 c-103 -100 -258 -170 -460 -207 -119 -23
-512 -31 -683 -16 -136 13 -375 45 -454 62 l-49 11 32 56 c57 102 205 314 312
448 444 553 1009 1042 1408 1220 190 84 335 118 514 118 150 0 219 -14 335
-71 93 -45 204 -151 243 -233 79 -162 47 -344 -81 -461 -118 -108 -273 -163
-397 -142 -178 31 -308 144 -308 269 0 30 3 58 7 61 4 4 22 -10 41 -30 40 -43
105 -76 152 -77 59 0 140 39 204 98 110 102 141 210 87 303 -84 143 -290 160
-478 38 -244 -158 -330 -434 -198 -641 36 -57 148 -164 208 -200 25 -14 78
-36 118 -48 64 -19 89 -22 185 -17 123 5 192 24 311 84 162 81 330 226 420
361 105 159 169 352 169 512 1 158 -44 273 -147 375 -71 71 -128 107 -229 143
-68 25 -82 26 -257 26 -181 0 -188 -1 -321 -37 -169 -44 -332 -108 -511 -199
l-137 -69 -77 61 c-399 318 -872 190 -1387 -375 -278 -305 -565 -700 -831
-1145 -62 -104 -129 -219 -147 -255 l-34 -67 -50 6 c-27 4 -147 9 -265 13
-403 11 -572 -27 -978 -221 -97 -47 -211 -94 -252 -106 -175 -48 -462 -62
-795 -39 -526 36 -843 25 -1158 -37 -43 -9 -80 -14 -82 -12 -6 6 84 218 154
364 208 431 493 844 864 1253 359 395 695 600 1026 627 206 16 416 -97 502
-273 30 -58 34 -78 34 -143 0 -65 -5 -85 -33 -142 -18 -37 -56 -90 -86 -121
-101 -102 -215 -135 -359 -103 -76 17 -240 93 -239 111 1 5 28 15 60 21 142
29 269 126 310 237 12 32 22 68 22 80 0 159 -197 270 -365 206 -120 -45 -239
-201 -295 -387 -44 -145 -11 -285 88 -373 239 -211 685 -176 949 74 224 211
334 558 247 778 -65 163 -229 294 -419 334 -95 20 -251 18 -355 -5z m3321
-490 c66 -20 167 -80 207 -123 l23 -25 -80 -56 c-327 -229 -831 -783 -1266
-1391 -43 -60 -81 -113 -84 -117 -3 -4 -122 8 -264 25 l-257 32 51 90 c116
205 464 708 637 925 106 132 359 383 467 464 97 72 259 159 340 181 73 19 154
18 226 -5z m-2442 -1930 c57 -5 106 -12 109 -14 8 -9 -351 -513 -555 -779
-358 -466 -539 -658 -808 -857 -99 -74 -237 -162 -243 -156 -2 3 -12 40 -23
83 -25 98 -96 243 -150 306 -95 111 -250 189 -371 188 -230 -1 -420 -306 -353
-564 21 -81 50 -132 108 -195 93 -98 202 -143 347 -143 91 0 141 8 232 40 l56
19 6 -21 c12 -44 6 -224 -9 -282 -36 -145 -144 -312 -271 -421 -329 -284 -733
-375 -1102 -250 -165 56 -357 178 -463 293 -160 176 -238 371 -246 623 -6 160
10 273 62 427 145 434 560 890 1025 1127 212 108 289 122 562 106 287 -18 486
2 674 65 115 38 192 75 449 216 99 54 210 109 246 123 171 64 453 90 718 66z
m766 -80 c246 -42 594 -90 656 -90 21 0 40 -4 44 -10 5 -9 -137 -284 -207
-400 -45 -75 -352 -380 -468 -467 -114 -84 -234 -155 -315 -185 -49 -18 -81
-23 -170 -23 -103 0 -113 2 -158 28 -68 40 -123 102 -164 184 -90 181 -39 427
147 702 62 93 147 199 227 282 l45 46 66 -14 c37 -8 171 -32 297 -53z m-2758
-1405 c75 -37 188 -150 231 -232 38 -72 75 -174 66 -182 -3 -3 -63 -6 -132 -6
-122 0 -130 1 -194 32 -88 41 -151 101 -189 178 -52 106 -41 179 34 226 43 27
107 21 184 -16z"/>
<path d="M17920 46728 c-61 -42 -157 -203 -185 -313 -15 -58 -23 -137 -45
-423 -8 -104 -20 -177 -44 -265 -50 -182 -49 -176 -31 -203 21 -33 51 -30 90
9 39 39 66 120 96 286 26 146 62 260 149 466 77 185 94 252 88 356 -3 60 -8
74 -27 90 -30 25 -51 24 -91 -3z"/>
<path d="M18254 46396 c-97 -42 -215 -212 -287 -411 -31 -86 -76 -304 -84
-406 -10 -124 24 -185 89 -160 36 14 57 57 68 143 11 85 34 157 80 248 49 97
85 146 175 235 153 151 188 296 85 347 -41 21 -83 22 -126 4z"/>
<path d="M30949 46347 c-183 -76 -275 -158 -454 -407 -93 -130 -148 -194 -257
-300 -76 -75 -138 -143 -138 -151 0 -30 37 -52 76 -46 55 9 105 49 238 190
128 136 225 219 423 360 133 95 210 174 250 254 29 61 26 94 -12 111 -37 17
-62 15 -126 -11z"/>
<path d="M30087 46236 c-32 -13 -65 -30 -75 -37 -83 -63 -97 -100 -82 -213 22
-157 -40 -287 -222 -467 -65 -64 -118 -123 -118 -131 0 -71 139 -38 277 66
228 172 455 570 413 725 -20 76 -95 98 -193 57z"/>
<path d="M17276 46225 c-79 -27 -150 -132 -151 -221 0 -55 -4 -47 96 -178 46
-61 63 -133 62 -266 -1 -98 -6 -131 -32 -220 -42 -144 -40 -170 15 -170 31 0
96 75 134 154 57 117 80 224 87 392 14 344 -74 556 -211 509z"/>
<path d="M33223 46010 c-395 -39 -826 -185 -1209 -411 -126 -75 -562 -383
-909 -643 -434 -325 -837 -659 -1127 -933 -65 -61 -100 -84 -226 -147 -392
-196 -680 -286 -922 -288 -119 -1 -191 13 -270 52 -113 57 -141 112 -148 286
-7 187 34 350 124 492 124 196 360 326 562 309 67 -5 161 -35 196 -62 18 -14
18 -16 -18 -59 -69 -85 -91 -159 -61 -215 92 -180 426 -87 491 137 41 140 -28
298 -159 361 -287 139 -904 -65 -1227 -405 -144 -151 -260 -355 -312 -547 -30
-111 -32 -294 -4 -381 35 -104 111 -183 223 -227 52 -21 74 -24 218 -24 119 0
182 5 245 19 218 47 507 153 768 281 l154 75 -369 -378 c-440 -451 -785 -813
-1553 -1627 -316 -335 -676 -716 -799 -845 -873 -914 -1479 -1539 -1883 -1943
-257 -258 -468 -471 -468 -473 0 -2 18 -4 40 -4 38 0 49 8 173 123 269 249
608 581 1192 1167 330 331 769 762 975 958 695 662 912 874 1800 1757 990 985
1394 1366 1643 1552 84 62 208 119 324 149 141 36 193 30 193 -22 0 -60 -68
-151 -282 -381 -240 -259 -524 -515 -779 -705 -60 -44 -107 -83 -105 -85 10
-10 182 19 260 44 101 32 221 91 305 151 35 25 130 108 210 184 149 143 273
243 396 318 88 54 250 131 335 158 277 90 574 76 654 -32 18 -23 21 -42 20
-124 0 -85 -4 -107 -32 -177 -50 -126 -121 -226 -261 -365 -255 -253 -476
-358 -615 -290 -25 12 -46 25 -46 28 0 4 26 19 58 34 158 74 212 190 153 326
-55 124 -161 154 -287 82 -136 -77 -264 -264 -264 -384 0 -84 129 -235 235
-276 79 -31 224 -32 335 -2 376 101 743 329 995 620 85 97 91 100 248 133 134
29 359 32 426 6 214 -83 208 -314 -15 -649 -150 -225 -330 -353 -516 -366
l-79 -5 30 32 c56 60 62 133 19 234 -67 156 -241 163 -389 15 -107 -107 -134
-236 -74 -354 87 -169 302 -186 701 -53 252 84 482 218 635 370 90 90 70 84
384 99 422 19 717 -24 779 -112 37 -52 7 -143 -80 -245 -98 -115 -291 -240
-539 -349 -171 -76 -498 -187 -692 -236 -73 -18 -133 -35 -133 -38 0 -3 43
-27 95 -53 95 -47 96 -47 196 -47 162 0 311 -44 379 -111 38 -39 60 -114 60
-209 0 -186 -90 -366 -285 -568 -167 -174 -383 -335 -668 -497 -162 -93 -2381
-1180 -3061 -1501 l-189 -89 39 -17 c55 -25 69 -23 175 23 172 75 535 217 947
370 998 370 1378 527 1822 749 524 262 907 522 1224 830 473 459 595 776 380
980 -86 81 -250 145 -429 168 l-60 7 125 34 c275 75 597 198 840 321 l115 59
125 -15 c422 -49 794 -152 1073 -297 109 -57 109 -60 -8 -71 -200 -19 -489
-83 -664 -145 -389 -139 -583 -336 -582 -589 0 -104 30 -173 107 -249 133
-131 379 -210 725 -233 72 -4 133 -10 135 -13 3 -2 0 -25 -7 -50 -29 -118 7
-260 87 -341 146 -148 455 -236 826 -236 67 0 118 -4 112 -8 -5 -5 -74 -37
-154 -72 -484 -211 -1615 -724 -2380 -1080 -814 -379 -1703 -770 -2628 -1156
-268 -112 -1001 -411 -1151 -469 l-73 -29 31 -15 c38 -18 8 -28 381 129 272
114 1072 436 1955 785 701 278 1069 428 1685 690 1024 435 1965 825 2838 1176
l494 198 173 -43 c226 -58 409 -127 635 -239 l185 -92 -230 -6 c-236 -7 -405
-25 -555 -60 -258 -60 -440 -153 -546 -280 -101 -121 -131 -286 -73 -406 31
-64 128 -160 215 -211 136 -81 368 -159 590 -197 l101 -18 -26 -61 c-22 -52
-26 -76 -26 -161 0 -93 2 -105 33 -167 73 -150 257 -269 530 -342 48 -13 80
-26 72 -29 -8 -4 -159 -34 -335 -67 -293 -56 -2571 -508 -3280 -651 -1064
-214 -2022 -429 -2903 -650 -261 -65 -478 -122 -484 -125 -5 -3 8 -17 29 -29
l38 -23 255 63 c1040 258 1995 441 4115 791 1984 327 2695 452 3405 601 305
64 270 64 539 -13 351 -102 611 -233 611 -308 0 -59 -126 -128 -333 -181 -146
-37 -283 -60 -1352 -230 -1460 -232 -2261 -370 -2855 -490 -969 -196 -3136
-659 -3153 -674 -4 -4 6 -17 22 -29 l29 -21 179 39 c730 160 1653 334 2593
489 426 70 641 100 1546 216 712 91 1196 158 1490 205 l182 29 69 -19 c158
-44 323 -141 434 -257 132 -136 252 -352 369 -663 178 -470 235 -597 341 -760
90 -138 172 -233 379 -441 286 -287 515 -468 731 -579 93 -48 238 -105 246
-97 2 2 -41 38 -94 79 -226 174 -428 366 -538 508 -52 68 -125 188 -125 207 0
7 36 -7 83 -32 339 -181 815 -320 1163 -341 106 -6 112 -8 204 -56 199 -104
386 -245 464 -349 146 -195 59 -256 -398 -279 -174 -9 -648 0 -821 15 -208 18
-1820 88 -3850 166 -148 6 -908 13 -1688 16 -1405 5 -1419 5 -1409 -14 27 -50
8 -48 586 -45 994 6 1680 -25 3661 -167 231 -17 647 -46 925 -66 278 -19 960
-69 1515 -110 l1010 -76 85 -31 c209 -76 433 -203 590 -333 211 -176 350 -414
350 -600 0 -74 -33 -137 -109 -208 -171 -160 -431 -176 -756 -46 -233 93 -376
218 -400 351 -13 68 0 94 59 121 99 46 176 136 176 207 0 107 -130 226 -270
245 -190 26 -363 -148 -362 -365 0 -118 36 -201 141 -328 120 -144 467 -390
716 -508 229 -108 520 -169 769 -163 l99 3 70 -80 c460 -525 724 -1180 752
-1864 l6 -145 -25 30 c-14 17 -79 102 -145 190 -186 250 -319 405 -525 610
-310 308 -556 484 -843 599 -414 166 -806 150 -1208 -50 -168 -84 -263 -170
-357 -325 -155 -256 -185 -669 -78 -1085 87 -336 276 -708 503 -989 92 -114
306 -318 417 -398 253 -180 575 -288 769 -258 238 37 403 200 483 477 20 70
23 100 22 259 0 166 -2 187 -27 270 -65 215 -164 353 -305 423 -71 35 -82 37
-166 37 -102 0 -145 -16 -203 -77 -41 -43 -55 -80 -55 -148 0 -125 79 -244
183 -274 70 -21 130 -20 224 4 43 11 79 20 80 20 1 0 14 -27 29 -61 73 -161
32 -357 -105 -504 -200 -214 -523 -217 -835 -9 -383 254 -624 769 -641 1370
-10 348 45 596 179 801 269 412 738 484 1322 205 308 -148 592 -372 800 -632
183 -228 370 -573 468 -860 l53 -155 -2 -145 c-7 -404 25 -1090 63 -1385 76
-589 317 -1202 646 -1643 81 -109 348 -383 355 -365 4 11 -111 414 -125 440
-4 6 -36 33 -72 59 -265 194 -423 524 -480 1004 -21 178 -24 583 -5 960 21
443 13 742 -36 1240 -19 197 -70 581 -88 661 -5 23 -5 39 0 39 17 0 343 -167
469 -240 379 -221 693 -463 1005 -775 483 -482 825 -1009 911 -1402 25 -116
23 -314 -5 -418 -49 -184 -146 -327 -260 -382 -45 -23 -68 -27 -126 -26 -154
2 -278 90 -360 257 -59 119 -78 210 -72 346 9 204 80 311 189 282 l33 -8 -4
-100 c-6 -169 38 -288 127 -345 42 -28 54 -30 114 -27 57 3 73 8 105 34 77 63
117 197 95 327 -18 107 -80 227 -158 303 -115 114 -264 185 -387 185 -166 1
-275 -118 -344 -376 -23 -89 -26 -118 -26 -265 -1 -182 11 -245 73 -393 103
-249 331 -502 551 -612 312 -158 567 -107 735 146 81 122 118 291 118 539 0
260 -53 470 -189 745 -112 228 -258 443 -574 845 -200 256 -215 271 -390 434
-454 421 -916 749 -1503 1065 l-183 99 -47 132 c-187 523 -447 969 -814 1397
l-36 42 63 32 c78 39 173 128 207 194 36 72 41 171 13 262 -53 171 -191 374
-396 578 -195 195 -399 350 -647 492 l-87 50 137 7 c250 12 378 44 449 111 36
35 43 48 43 79 0 21 -8 54 -17 74 -51 111 -402 381 -847 653 l-136 82 80 38
c140 66 228 174 249 306 21 137 -43 325 -170 500 -61 84 -201 218 -304 291
-74 52 -280 165 -334 183 -10 4 2 21 36 55 120 120 125 301 16 519 -74 147
-271 303 -558 444 -138 68 -405 177 -539 221 l-70 23 115 32 c189 52 323 119
363 180 64 97 -74 231 -398 385 -153 73 -391 168 -553 221 -57 18 -103 36
-103 40 0 19 297 73 463 85 53 3 97 8 97 11 0 9 -56 113 -117 217 -610 1029
-1558 1772 -2573 2016 -74 18 -142 34 -150 37 -42 14 312 107 585 153 99 17
184 32 189 33 24 8 -67 58 -130 73 -191 44 -232 56 -301 89 -150 73 -293 183
-639 497 -852 770 -1301 1035 -1995 1177 -192 40 -560 80 -732 81 l-37 0 42
53 c131 160 173 333 106 435 -36 54 -124 96 -248 119 -175 32 -692 21 -1139
-24 l-64 -6 32 47 c87 127 149 313 136 411 -20 152 -122 246 -320 292 -160 37
-504 20 -770 -38 -49 -10 -92 -19 -95 -19 -4 0 2 30 11 68 10 37 18 104 18
149 2 189 -91 296 -299 349 -97 25 -337 15 -485 -20 -142 -34 -279 -76 -399
-124 l-95 -39 84 89 c169 177 218 287 161 355 -62 74 -231 70 -512 -11 -65
-19 -120 -33 -122 -31 -5 5 451 408 648 572 527 441 967 721 1410 901 263 106
443 146 665 145 169 0 266 -16 380 -64 38 -16 73 -29 78 -29 4 0 31 15 59 34
l51 35 -39 16 c-184 77 -508 118 -751 95z m2940 -4439 c43 -11 97 -29 120 -40
46 -21 255 -185 439 -344 l118 -102 -157 -17 c-317 -35 -583 -101 -798 -198
-63 -28 -195 -111 -257 -161 -26 -22 -27 -22 -140 -5 -340 48 -518 153 -518
304 0 128 133 292 336 414 134 81 304 142 469 168 93 14 298 4 388 -19z m951
-716 c196 -149 426 -291 629 -385 53 -25 96 -47 97 -50 0 -3 -55 -22 -123 -43
-194 -61 -443 -152 -697 -254 l-235 -94 -80 11 c-289 41 -555 135 -674 236
-84 72 -112 175 -70 261 70 144 394 306 734 367 44 8 137 15 207 15 l127 1 85
-65z m1356 -1335 c106 -12 203 -34 268 -61 85 -37 447 -348 589 -508 46 -51
82 -95 80 -97 -1 -2 -61 4 -132 12 -165 20 -568 14 -691 -10 -169 -32 -300
-89 -398 -170 -31 -25 -58 -40 -70 -38 -55 9 -267 87 -347 128 -210 108 -280
235 -208 377 31 61 136 159 226 212 173 101 322 144 573 163 8 1 58 -3 110 -8z
m1012 -856 l87 -16 54 -66 c77 -96 136 -176 194 -262 57 -85 167 -279 162
-284 -2 -2 -130 -24 -284 -50 -154 -26 -389 -68 -522 -95 l-243 -48 -89 38
c-104 43 -214 105 -292 165 -181 139 -219 296 -97 411 98 92 300 172 524 207
127 20 398 20 506 0z m778 -1854 c235 -33 457 -87 615 -150 229 -91 409 -228
476 -365 28 -58 31 -71 27 -137 -5 -85 -24 -131 -82 -194 -83 -89 -225 -150
-403 -174 -116 -16 -430 -8 -559 14 -201 34 -180 23 -254 142 -191 310 -448
580 -684 717 -47 27 -74 48 -65 51 24 9 716 110 779 115 8 0 76 -8 150 -19z
m93 -1164 c455 -137 846 -171 1088 -95 l66 21 59 -33 c222 -123 412 -287 472
-408 42 -84 45 -176 8 -249 -110 -218 -484 -304 -914 -211 -238 52 -513 179
-543 251 -7 18 -75 164 -152 323 -180 376 -207 435 -202 435 3 0 56 -15 118
-34z"/>
<path d="M31026 45909 c-59 -14 -194 -80 -282 -139 -98 -65 -333 -300 -392
-392 -64 -99 -58 -158 16 -158 32 0 46 10 131 99 53 54 125 118 160 141 87 58
214 116 281 128 165 31 310 129 310 211 0 39 -36 90 -75 107 -38 16 -90 17
-149 3z"/>
<path d="M12175 45056 c-77 -18 -147 -46 -215 -86 -378 -222 -675 -676 -854
-1307 -179 -632 -245 -1378 -175 -1996 l11 -102 -51 -121 c-66 -158 -137 -351
-201 -550 l-52 -162 -66 68 c-230 233 -507 261 -723 72 -163 -143 -318 -464
-415 -862 -16 -63 -30 -117 -31 -119 -1 -2 -21 13 -45 34 -64 54 -191 113
-268 124 -183 25 -341 -52 -434 -212 -92 -156 -170 -507 -192 -859 l-7 -107
-28 59 c-88 186 -227 329 -322 330 -41 0 -82 -25 -106 -64 -72 -116 -131 -441
-148 -811 -9 -209 -13 -212 -56 -39 -47 190 -57 256 -57 374 -1 100 -15 270
-26 317 -6 24 -9 19 -26 -42 -27 -98 -97 -241 -175 -360 -53 -79 -121 -155
-323 -360 -407 -414 -617 -656 -930 -1075 -447 -597 -605 -987 -651 -1605 -6
-82 -12 -151 -13 -153 -2 -1 -23 5 -47 15 -29 11 -76 17 -139 17 -107 1 -153
-15 -229 -80 -78 -67 -142 -242 -175 -482 -24 -172 -39 -479 -33 -679 l6 -181
-57 39 c-75 52 -176 83 -251 76 -82 -7 -147 -41 -223 -118 -115 -117 -186
-292 -209 -523 -20 -202 13 -495 87 -755 l7 -24 -44 26 c-212 121 -417 59
-481 -145 -21 -68 -23 -91 -23 -308 0 -243 13 -376 56 -589 10 -51 19 -95 19
-97 0 -2 -42 38 -92 89 -171 171 -235 168 -285 -13 -26 -93 -25 -476 0 -640
21 -137 69 -338 102 -429 13 -36 22 -67 20 -69 -2 -2 -82 101 -178 230 -473
633 -822 1183 -1037 1631 -322 672 -492 1312 -452 1702 13 126 46 241 92 324
l30 53 -20 28 c-41 58 -45 57 -83 -32 -46 -110 -91 -253 -114 -363 -26 -128
-26 -513 0 -670 61 -371 278 -1065 431 -1380 295 -609 776 -1329 1345 -2015
80 -96 185 -219 234 -273 84 -92 92 -105 132 -210 99 -262 193 -593 215 -761
33 -243 -26 -374 -189 -423 -77 -23 -255 -23 -341 0 -235 63 -450 240 -563
464 -69 135 -90 328 -54 483 25 107 26 108 79 68 25 -19 66 -40 92 -48 94 -26
165 10 213 107 23 48 28 71 28 133 -1 89 -20 133 -87 197 -67 64 -121 88 -200
88 -58 0 -72 -4 -110 -30 -87 -61 -161 -211 -193 -393 -19 -105 -19 -330 1
-432 88 -464 490 -945 906 -1084 169 -56 314 -53 446 9 171 81 259 229 269
456 11 224 -46 470 -182 788 -29 68 -50 119 -45 115 4 -5 76 -88 161 -184 84
-96 356 -402 604 -680 866 -970 1304 -1480 1629 -1900 897 -1159 1329 -1700
1815 -2280 304 -362 755 -881 772 -888 4 -2 5 23 2 55 l-6 58 -406 495 c-777
949 -1175 1462 -1821 2350 -666 915 -964 1301 -1461 1890 -145 173 -611 730
-1035 1238 l-771 924 -37 167 c-56 255 -69 352 -70 511 -1 147 9 205 40 230
75 63 726 -723 1014 -1225 61 -105 129 -255 130 -284 0 -28 28 10 39 54 27
108 8 255 -60 460 -72 219 -195 439 -378 680 -185 243 -313 499 -373 743 -25
102 -29 265 -9 327 34 102 111 180 193 195 235 43 648 -288 779 -624 44 -111
51 -244 19 -328 -12 -32 -26 -60 -31 -64 -5 -3 -36 19 -68 49 -70 64 -136 99
-200 104 -63 6 -129 -36 -161 -102 -46 -94 -8 -205 111 -327 85 -88 170 -129
275 -136 65 -4 80 -2 129 23 64 31 104 79 132 158 29 82 26 356 -6 502 -50
237 -146 466 -276 660 -113 168 -209 272 -402 432 -19 16 -24 37 -39 158 -19
165 -22 471 -5 569 26 150 80 259 145 290 42 20 133 21 201 2 176 -47 405
-193 556 -353 82 -87 120 -141 167 -241 35 -73 37 -82 37 -177 0 -84 -4 -107
-22 -140 -47 -88 -39 -88 -140 12 -113 114 -194 158 -276 151 -105 -9 -162
-81 -155 -197 5 -91 40 -162 123 -250 51 -53 86 -80 143 -109 69 -34 83 -37
156 -37 68 0 89 5 131 27 142 75 217 233 217 458 1 192 -48 378 -156 596 -124
251 -282 451 -433 549 l-61 40 -7 64 c-11 98 1 464 19 566 56 317 188 446 367
358 248 -121 549 -709 658 -1283 40 -209 29 -199 87 -80 50 103 50 105 41 164
-11 80 -2 287 17 353 42 153 134 256 248 277 60 11 168 -18 275 -73 301 -155
635 -514 823 -885 68 -134 171 -440 295 -871 153 -534 273 -1049 427 -1827 51
-258 95 -468 98 -468 4 0 11 15 18 33 12 34 -20 294 -119 957 -137 923 -284
1574 -485 2145 -229 649 -780 1309 -1227 1467 -197 70 -319 15 -425 -190 -39
-75 -81 -191 -97 -262 -7 -32 -10 -26 -41 85 -87 317 -187 548 -327 759 l-60
90 6 92 c13 197 75 419 173 620 50 103 201 345 224 359 6 4 10 -9 10 -32 0
-64 29 -280 55 -408 101 -503 299 -815 568 -896 98 -31 248 -24 329 13 151 70
247 250 279 519 17 151 6 422 -27 608 l-5 33 43 -34 c91 -72 179 -108 267
-108 239 0 379 249 409 725 l7 119 89 -189 c471 -1003 949 -2195 1461 -3645
140 -398 289 -806 678 -1860 190 -514 388 -1056 442 -1205 53 -148 100 -274
104 -278 4 -4 16 12 25 36 l17 44 -205 564 c-400 1104 -664 1857 -972 2769
-428 1269 -606 1781 -834 2410 -290 800 -592 1570 -855 2185 l-77 180 5 235
c6 274 22 383 70 480 53 107 102 116 183 34 122 -122 238 -350 493 -971 511
-1243 640 -1588 1299 -3473 541 -1544 621 -1778 834 -2413 88 -262 164 -474
169 -471 5 3 17 21 27 40 l18 35 -107 322 c-151 452 -319 973 -519 1607 -507
1607 -594 1879 -725 2260 -338 978 -636 1808 -867 2410 -77 201 -145 392 -151
425 -6 33 -11 191 -11 350 -1 317 6 375 60 496 32 71 98 135 182 176 50 25 68
28 152 28 129 0 183 -26 301 -144 194 -194 311 -488 280 -704 -6 -48 -23 -107
-40 -143 -31 -65 -109 -161 -121 -147 -4 4 -13 29 -20 56 -16 59 -78 131 -126
147 -54 18 -167 9 -200 -16 -50 -37 -69 -89 -68 -184 3 -247 168 -399 374
-346 83 21 137 54 202 121 71 72 114 146 154 263 45 134 58 243 51 437 -13
322 -69 521 -212 751 l-44 70 10 68 c43 310 155 581 285 695 95 84 227 113
334 72 226 -86 423 -446 446 -816 11 -172 -27 -322 -102 -400 l-29 -30 -6 95
c-6 106 -24 158 -71 207 -64 66 -199 82 -268 33 -126 -89 -92 -362 62 -505 67
-63 131 -87 225 -87 200 0 380 227 440 555 23 127 23 381 0 502 -22 110 -68
263 -112 371 l-34 82 39 148 c98 375 213 614 295 614 168 0 384 -787 414
-1505 l7 -160 19 45 c10 25 59 126 109 224 l91 179 0 86 c-1 64 -8 110 -29
178 -39 130 -96 418 -96 483 0 77 26 294 50 410 33 163 68 270 127 389 45 91
70 128 122 181 76 76 155 120 217 120 151 0 357 -329 425 -682 34 -175 23
-361 -26 -458 -20 -41 -84 -110 -101 -110 -6 0 -13 24 -16 58 -8 85 -27 137
-66 183 -41 47 -84 69 -139 69 -172 0 -260 -334 -134 -507 63 -87 197 -117
324 -74 149 52 294 215 376 423 102 258 94 552 -25 955 l-36 123 23 57 c149
373 307 613 405 613 30 0 82 -68 113 -150 105 -270 200 -922 281 -1920 49
-615 67 -1015 80 -1790 21 -1263 49 -2548 58 -2608 l7 -43 43 33 44 33 -5 120
c-25 587 -30 1253 -18 2125 10 706 11 1043 2 1475 -11 537 -24 925 -36 1066
-6 63 -4 68 31 120 133 198 323 365 541 476 118 61 197 90 365 138 504 143
998 411 1307 710 173 168 267 304 316 458 37 117 33 130 -18 61 -51 -69 -127
-142 -214 -206 -93 -68 -279 -161 -366 -182 l-28 -7 35 68 c107 213 209 524
247 753 18 108 16 301 -5 380 -37 146 -126 269 -232 321 -41 20 -64 24 -139
24 -85 0 -95 -2 -175 -41 -176 -84 -386 -294 -568 -566 l-45 -68 -28 46 c-40
62 -109 127 -166 155 -39 19 -64 24 -134 24 -79 0 -91 -3 -162 -38 -128 -63
-266 -213 -396 -428 -105 -176 -224 -457 -281 -664 -37 -135 -38 -137 -39 -68
-2 164 -56 433 -106 534 -53 105 -132 164 -196 144 -36 -12 -125 -102 -189
-190 -85 -119 -209 -334 -322 -562 l-100 -203 -50 83 c-144 240 -314 307 -517
205 -255 -129 -458 -513 -551 -1047 -11 -62 -20 -125 -21 -140 0 -14 -13 36
-29 112 -57 283 -129 450 -210 492 -34 18 -83 19 -112 4 -11 -6 -21 -9 -24 -7
-9 9 -24 155 -35 331 -36 602 98 1327 332 1787 92 181 170 292 293 416 163
163 300 241 468 264 189 27 356 -70 446 -257 36 -75 37 -82 37 -188 0 -98 -3
-116 -27 -167 -57 -123 -200 -221 -322 -222 -36 -1 -80 6 -108 17 -50 20 -128
95 -128 124 0 12 22 28 69 50 88 42 164 110 187 168 44 116 -26 267 -141 305
-128 42 -333 -66 -405 -213 -69 -142 -61 -287 26 -460 64 -127 170 -203 317
-227 168 -29 417 49 550 170 218 199 296 561 189 870 -58 166 -186 338 -307
412 -108 66 -259 92 -380 64z m3220 -1461 c65 -31 160 -133 199 -214 103 -214
61 -547 -114 -905 -37 -75 -44 -84 -97 -113 -72 -39 -199 -94 -323 -140 -89
-33 -384 -113 -414 -113 -10 0 -5 21 19 78 128 305 196 652 165 850 l-12 80
52 101 c99 189 240 347 344 385 52 19 129 15 181 -9z m-1027 -469 c107 -54
182 -152 217 -282 49 -179 -10 -530 -128 -772 -30 -61 -35 -66 -90 -88 -182
-72 -485 -355 -655 -611 l-36 -55 -8 28 c-32 118 -33 491 -2 753 43 372 130
621 289 832 146 195 285 260 413 195z m-6706 -5286 c145 -322 198 -480 218
-645 13 -107 7 -213 -16 -304 -47 -183 -178 -326 -278 -305 -153 32 -378 274
-487 525 -41 94 -109 336 -109 389 0 53 94 177 259 340 143 142 226 244 262
323 13 28 13 27 47 -70 19 -54 65 -168 104 -253z m-812 -560 c0 -22 7 -86 15
-143 49 -325 151 -585 288 -734 l42 -46 -1 -201 c-1 -264 -29 -401 -104 -505
-45 -62 -98 -84 -184 -79 -192 13 -410 185 -524 413 -96 193 -134 432 -98 617
15 77 13 75 130 204 119 132 270 315 352 425 37 49 71 89 76 89 4 0 8 -18 8
-40z"/>
<path d="M24721 44204 c-152 -76 -186 -291 -64 -406 36 -34 73 -48 130 -48 58
0 103 22 149 72 53 59 74 111 74 191 0 99 -34 168 -102 203 -44 23 -127 18
-187 -12z"/>
<path d="M35318 44169 c-26 -4 -72 -19 -102 -32 -67 -31 -83 -59 -101 -173
-17 -99 -47 -163 -115 -237 -68 -75 -148 -134 -259 -191 -105 -54 -124 -77
-92 -110 61 -60 295 16 486 160 81 60 236 217 283 286 72 104 99 198 72 249
-22 40 -95 61 -172 48z"/>
<path d="M36070 44041 c-156 -45 -194 -70 -469 -299 -73 -62 -172 -134 -220
-161 -47 -27 -113 -64 -145 -83 -32 -18 -66 -44 -74 -57 -15 -22 -15 -25 12
-47 15 -13 38 -24 51 -24 48 0 137 43 272 132 153 100 248 148 475 239 165 65
257 118 313 181 60 66 65 111 15 138 -33 18 -132 10 -230 -19z"/>
<path d="M36021 43605 c-150 -34 -289 -92 -429 -181 -210 -133 -295 -212 -290
-267 2 -23 10 -35 31 -45 37 -18 80 -3 156 54 71 53 159 95 278 130 72 22 114
27 228 30 178 5 261 27 318 85 36 36 39 43 34 80 -12 87 -61 121 -182 126 -45
1 -108 -4 -144 -12z"/>
<path d="M40976 37413 c-13 -3 19 -23 110 -67 219 -106 349 -200 529 -380 256
-256 451 -568 653 -1041 164 -385 285 -620 439 -855 107 -163 187 -262 291
-361 72 -69 109 -96 184 -132 147 -72 252 -100 381 -101 107 -1 109 -1 133 27
29 34 30 58 3 117 -58 128 -183 167 -358 111 l-73 -24 -34 39 c-168 194 -245
335 -384 709 -224 601 -373 915 -540 1140 -142 190 -297 347 -505 508 -188
146 -312 216 -483 274 -92 31 -122 36 -217 39 -60 2 -119 1 -129 -3z"/>
<path d="M4263 36919 c-52 -33 -68 -79 -68 -199 1 -179 64 -364 201 -584 127
-206 222 -295 270 -255 44 36 35 100 -23 176 -48 63 -106 188 -134 288 -17 64
-22 111 -24 240 -3 187 -21 265 -76 321 -27 28 -40 34 -73 34 -24 0 -54 -9
-73 -21z"/>
<path d="M3751 36894 c-29 -37 -27 -113 4 -238 41 -159 69 -205 308 -499 71
-88 125 -169 172 -255 38 -70 77 -139 87 -154 37 -54 98 -23 98 49 0 53 -40
138 -135 289 -97 152 -137 236 -225 471 -69 182 -106 248 -178 314 -63 58 -99
64 -131 23z"/>
<path d="M42743 36140 c-35 -14 -30 -59 10 -97 83 -78 227 -130 396 -143 172
-14 446 -95 585 -174 56 -32 141 -59 165 -51 32 10 33 35 5 94 -40 82 -168
205 -267 256 l-78 39 -217 7 c-288 10 -327 14 -424 43 -105 31 -147 37 -175
26z"/>
<path d="M3659 36045 c-66 -36 -74 -187 -16 -290 34 -59 63 -75 167 -90 51 -8
111 -24 134 -36 106 -55 213 -175 283 -319 53 -108 69 -130 94 -130 75 0 60
191 -30 368 -95 186 -310 410 -466 484 -66 31 -125 36 -166 13z"/>
<path d="M44705 33039 c-11 -6 -51 -42 -90 -80 -38 -37 -90 -77 -115 -88 -113
-49 -273 -52 -438 -6 -97 27 -127 26 -137 -4 -22 -71 118 -171 315 -223 70
-18 111 -22 235 -22 347 0 565 104 526 251 -27 101 -223 214 -296 172z"/>
<path d="M44322 32458 c-29 -29 -2 -93 55 -125 51 -29 132 -49 294 -72 158
-23 215 -40 449 -131 212 -83 242 -91 334 -92 144 0 191 54 128 150 -35 53
-228 162 -334 188 -42 10 -152 18 -333 24 -252 8 -278 10 -393 39 -133 33
-181 38 -200 19z"/>
<path d="M44343 32151 c-53 -9 -83 -35 -83 -73 0 -39 46 -85 91 -91 19 -3 69
-10 112 -16 151 -21 331 -116 454 -239 119 -120 207 -172 290 -172 47 0 72 16
89 55 36 87 7 172 -91 264 -151 141 -346 220 -656 265 -113 17 -138 18 -206 7z"/>
<path d="M1810 31363 c-101 -70 -98 -214 7 -428 66 -132 144 -236 278 -371
127 -127 215 -196 267 -209 33 -8 66 9 78 41 16 41 -13 90 -113 188 -131 129
-233 312 -257 459 -37 232 -163 387 -260 320z"/>
<path d="M1303 31164 c-41 -41 -30 -107 41 -250 74 -149 137 -216 368 -391
128 -97 203 -162 270 -235 158 -172 164 -178 191 -178 30 0 47 25 47 66 0 58
-43 119 -200 279 -163 166 -205 218 -358 447 -101 148 -177 227 -257 264 -63
30 -70 30 -102 -2z"/>
<path d="M1465 30256 c-39 -17 -55 -37 -65 -83 -24 -103 72 -293 156 -309 19
-3 71 1 117 10 100 20 148 13 246 -39 95 -50 169 -112 250 -209 83 -99 100
-111 127 -91 50 36 2 185 -104 325 -189 250 -577 461 -727 396z"/>
<path d="M38624 24270 c3 -14 6 -41 6 -61 0 -33 25 -65 278 -355 152 -176 468
-540 702 -809 1208 -1392 1430 -1633 2566 -2775 380 -382 923 -931 1207 -1219
l516 -524 70 -136 c172 -337 238 -598 186 -728 -45 -113 -111 -65 -622 457
-395 403 -492 517 -571 670 l-34 65 5 -105 c5 -114 25 -183 90 -320 64 -135
134 -239 222 -332 318 -334 555 -689 651 -975 91 -269 32 -540 -124 -569 -89
-17 -199 29 -418 175 -332 220 -455 372 -480 590 -6 55 12 231 23 231 3 0 26
-18 50 -41 25 -22 69 -52 100 -66 87 -40 146 -22 207 65 83 117 15 277 -149
354 -60 27 -73 30 -149 27 -75 -4 -89 -7 -127 -34 -93 -65 -139 -176 -146
-355 -8 -197 39 -403 137 -602 124 -252 293 -445 533 -609 97 -67 109 -85 180
-264 50 -128 70 -227 65 -333 -4 -111 -39 -189 -107 -237 -40 -28 -48 -30
-129 -29 -103 1 -208 32 -347 101 -353 178 -586 459 -545 658 6 30 16 57 21
61 5 3 27 -10 49 -30 123 -111 275 -115 325 -9 49 102 -51 296 -187 362 -58
27 -144 28 -197 2 -107 -55 -171 -195 -171 -375 0 -220 99 -468 286 -717 91
-120 270 -292 356 -342 63 -37 66 -40 72 -85 39 -301 76 -643 76 -708 0 -276
-167 -384 -388 -251 -258 155 -572 604 -747 1069 l-52 138 -24 -57 -25 -58 28
-95 c99 -331 71 -574 -77 -665 -42 -26 -58 -30 -114 -29 -136 2 -381 102 -555
226 -49 34 -141 113 -204 173 -322 309 -583 722 -897 1421 -35 78 -162 346
-281 595 -388 814 -603 1283 -769 1676 -38 89 -71 160 -75 158 -4 -2 -12 -28
-19 -57 l-13 -53 70 -165 c39 -91 165 -392 280 -670 359 -862 516 -1217 737
-1665 256 -519 392 -754 625 -1082 219 -307 352 -475 490 -617 136 -140 244
-224 360 -280 84 -40 87 -41 195 -41 101 0 115 2 170 29 65 32 160 121 213
198 18 26 52 85 76 131 l44 84 28 -71 c74 -192 185 -377 313 -523 87 -100 90
-109 90 -303 1 -198 -34 -413 -106 -650 -37 -124 -130 -364 -171 -445 l-25
-50 -18 125 c-60 429 -188 745 -379 940 -139 142 -271 196 -459 188 -86 -3
-103 -7 -159 -38 -99 -52 -157 -138 -199 -290 -26 -95 -24 -431 3 -583 18 -94
18 -107 4 -101 -62 26 -116 37 -195 38 -98 1 -149 -16 -219 -69 -109 -83 -179
-281 -201 -568 -7 -84 -8 -88 -23 -66 -26 37 -304 594 -386 774 -140 306 -315
722 -513 1220 -107 270 -278 698 -379 952 -182 457 -366 888 -811 1898 -504
1143 -818 1844 -824 1837 -4 -4 -12 -23 -18 -43 -11 -35 -1 -59 315 -800 809
-1895 950 -2238 1776 -4304 1011 -2529 1171 -2939 1187 -3055 6 -41 15 -142
21 -225 12 -164 32 -283 56 -342 l16 -38 18 56 c43 140 178 350 393 611 228
279 461 570 558 700 466 625 711 1133 799 1659 36 214 37 546 3 763 l-6 38 43
-27 c116 -73 274 -100 364 -61 92 39 171 137 204 253 35 124 15 465 -54 923
-14 91 -27 186 -31 211 l-6 47 59 -29 c135 -65 316 -77 424 -28 143 67 190
163 190 393 0 184 -59 470 -134 656 -14 35 -24 65 -23 67 2 2 24 -4 48 -14 29
-11 76 -17 139 -17 79 -1 102 3 135 20 58 31 94 71 123 134 23 49 26 71 30
197 3 102 0 178 -13 265 -19 141 -79 385 -123 506 -17 45 -26 79 -20 76 6 -4
40 -29 75 -56 131 -98 233 -130 285 -88 39 30 52 87 51 225 -2 237 -86 595
-198 840 -19 43 -34 80 -32 82 5 4 340 -338 477 -487 223 -244 595 -693 762
-920 498 -679 702 -1337 598 -1933 -11 -62 -23 -125 -28 -142 -7 -24 -3 -43
24 -100 l32 -69 16 38 c28 67 64 191 83 282 24 123 24 439 0 574 -60 327 -189
668 -412 1090 -273 516 -359 649 -654 1020 -343 431 -799 917 -1158 1234 -108
95 -113 102 -187 235 -169 305 -256 573 -243 746 10 129 68 210 183 256 84 33
255 33 368 1 171 -49 333 -145 456 -272 166 -171 230 -366 177 -542 l-17 -58
-45 34 c-100 77 -217 61 -260 -34 -39 -87 2 -259 85 -353 41 -47 78 -67 125
-67 50 0 84 20 139 81 148 165 186 460 95 734 -127 380 -527 802 -874 922 -71
24 -94 27 -205 27 -147 0 -204 -16 -312 -90 -129 -88 -180 -193 -181 -374 0
-58 6 -134 12 -170 27 -150 113 -383 203 -550 50 -92 80 -116 -311 255 -1037
984 -2124 2045 -2491 2430 -525 552 -1074 1158 -1769 1955 -260 297 -245 282
-237 250z m2914 -10975 c174 -55 326 -207 427 -429 73 -160 144 -436 161 -627
6 -66 4 -80 -16 -120 -55 -106 -227 -360 -404 -594 l-91 -119 -6 199 c-3 110
-12 232 -18 270 -50 299 -182 550 -349 667 -20 13 -27 34 -42 125 -38 227 -35
396 11 517 20 55 67 108 109 125 45 18 136 12 218 -14z m-583 -999 c227 -60
384 -282 474 -666 24 -99 49 -262 52 -337 l3 -53 -98 -104 c-165 -177 -301
-357 -371 -496 -16 -30 -30 -50 -31 -45 -2 6 -20 64 -39 130 -47 153 -117 327
-216 533 l-78 164 -16 131 c-26 231 -18 454 22 583 45 145 147 201 298 160z"/>
<path d="M383 22025 c-95 -29 -198 -116 -255 -215 -34 -57 -73 -174 -100 -298
-32 -144 -32 -431 0 -591 35 -173 96 -347 188 -530 183 -370 422 -685 834
-1105 459 -467 874 -807 1475 -1209 l210 -140 27 -95 c202 -705 586 -1351
1117 -1876 l100 -100 -81 -23 c-187 -54 -334 -163 -377 -278 -29 -78 -28 -179
3 -267 116 -327 498 -686 1007 -945 l134 -68 -145 -6 c-254 -13 -436 -66 -497
-146 -37 -48 -36 -112 3 -184 33 -62 198 -230 325 -333 230 -186 497 -325 689
-360 l35 -6 -35 22 c-369 228 -585 408 -620 514 -16 47 11 99 73 141 107 72
242 97 677 123 606 36 892 42 2150 45 685 1 1632 8 2105 15 473 6 1281 10
1796 9 l937 -4 -29 36 -28 36 -197 6 c-109 4 -688 7 -1288 7 -1087 0 -1470 7
-2021 35 -649 33 -1797 54 -3001 55 l-461 0 -164 54 c-393 130 -630 263 -836
471 -137 140 -196 275 -173 398 32 167 169 288 395 348 108 29 315 31 430 5
168 -37 315 -134 400 -262 36 -54 86 -177 98 -242 l7 -33 -30 21 c-68 49 -159
49 -231 0 -62 -41 -89 -92 -89 -165 2 -157 100 -256 257 -258 180 -2 292 101
301 278 5 103 -15 191 -73 313 -56 118 -115 201 -197 278 -212 198 -568 335
-968 374 l-115 11 -111 113 c-549 562 -902 1323 -964 2081 -6 77 -10 178 -8
225 l3 85 47 -86 c144 -263 389 -574 633 -807 427 -407 870 -632 1244 -632
262 0 456 85 661 290 99 98 122 128 162 205 98 192 161 394 194 621 22 145 24
499 5 649 -49 383 -118 631 -244 879 -64 127 -276 453 -374 577 -204 256 -586
484 -928 554 -104 21 -299 21 -379 0 -132 -35 -245 -124 -300 -238 -46 -93
-60 -170 -60 -317 0 -214 28 -330 126 -522 137 -268 324 -408 548 -408 276 0
461 220 407 483 -22 109 -85 235 -142 285 -91 80 -214 74 -296 -15 -120 -129
-60 -309 123 -368 29 -10 54 -19 56 -20 2 -1 -5 -21 -14 -44 -22 -55 -72 -97
-140 -117 -52 -15 -59 -15 -102 1 -216 80 -362 314 -362 580 0 234 104 429
270 509 60 29 72 31 170 30 86 0 120 -5 190 -28 182 -60 362 -174 538 -341
225 -214 384 -459 471 -725 66 -204 86 -370 86 -720 0 -279 -8 -365 -51 -572
-28 -133 -90 -320 -136 -412 -83 -165 -206 -306 -338 -388 -134 -83 -352 -138
-496 -125 -151 14 -431 135 -614 265 -131 92 -345 308 -461 464 -173 231 -329
515 -458 833 l-61 148 19 136 c38 263 45 368 45 606 0 330 -33 533 -139 851
-165 492 -348 799 -656 1100 -102 99 -298 258 -307 249 -3 -3 127 -376 155
-442 7 -18 27 -40 46 -49 199 -103 388 -303 468 -495 103 -248 116 -518 55
-1065 -36 -311 -46 -498 -46 -824 0 -264 14 -668 25 -732 2 -16 1 -28 -4 -28
-5 0 -77 38 -161 85 -416 234 -661 415 -945 700 -190 190 -533 578 -725 820
-174 220 -350 533 -422 750 -61 184 -73 258 -72 450 0 156 2 177 28 260 38
124 70 178 151 261 97 97 163 129 270 129 69 0 86 -4 127 -27 86 -51 182 -180
230 -311 25 -67 31 -103 35 -193 12 -245 -49 -381 -201 -455 -33 -16 -61 -27
-63 -25 -2 2 1 23 6 47 51 220 -95 469 -276 469 -125 0 -212 -140 -186 -297
36 -210 231 -432 440 -502 220 -74 396 47 486 334 72 228 60 477 -32 680 -131
288 -482 599 -756 670 -71 18 -194 19 -252 0z"/>
<path d="M45466 18924 c-40 -103 121 -330 336 -474 151 -101 289 -159 400
-167 114 -9 158 25 158 125 0 63 -46 157 -100 206 -34 31 -47 36 -88 36 -26 0
-63 -5 -82 -10 -141 -43 -319 36 -487 213 -60 64 -88 87 -106 87 -14 0 -28 -7
-31 -16z"/>
<path d="M45592 18398 c-7 -7 -12 -31 -12 -54 0 -60 61 -137 203 -257 121
-103 216 -208 360 -399 97 -128 129 -161 207 -212 93 -61 153 -58 166 9 8 47
-15 110 -80 220 -70 117 -144 187 -331 312 -183 122 -284 203 -349 278 -49 58
-120 115 -141 115 -6 0 -16 -5 -23 -12z"/>
<path d="M45386 18148 c-9 -12 -16 -29 -16 -36 0 -32 47 -93 101 -132 99 -72
234 -262 271 -380 9 -30 27 -88 39 -129 38 -127 131 -241 197 -241 36 0 99 67
108 115 30 161 -142 445 -412 677 -158 136 -253 177 -288 126z"/>
<path d="M1851 16024 c-27 -19 -51 -71 -51 -112 0 -51 48 -130 111 -180 131
-106 309 -178 526 -212 227 -35 344 -24 359 35 15 61 -42 100 -161 109 -146
11 -379 121 -460 218 -65 78 -204 158 -273 158 -15 0 -38 -7 -51 -16z"/>
<path d="M1597 15590 c-57 -10 -87 -33 -87 -68 0 -57 58 -111 200 -182 111
-56 142 -61 450 -70 257 -7 296 -11 394 -35 60 -14 125 -25 145 -23 33 3 36 6
39 37 7 70 -73 112 -259 137 -178 23 -310 57 -509 131 -106 39 -202 68 -245
73 -38 5 -72 9 -75 9 -3 -1 -27 -5 -53 -9z"/>
<path d="M2459 15070 c-239 -27 -379 -102 -379 -201 0 -71 39 -119 135 -166
54 -27 100 -35 132 -22 15 5 59 41 99 78 97 93 161 116 324 115 89 0 132 -5
191 -22 94 -27 125 -28 139 -2 8 15 7 27 -5 49 -61 119 -369 201 -636 171z"/>
<path d="M34993 14287 l-41 -53 38 -390 c162 -1622 261 -2860 300 -3759 63
-1440 120 -1984 295 -2799 85 -393 98 -489 99 -716 1 -225 -15 -327 -85 -546
-72 -224 -156 -394 -245 -493 -60 -66 -94 -84 -145 -76 -116 20 -309 217 -413
423 -187 372 -152 680 93 811 32 17 64 31 69 31 7 0 9 -30 5 -89 -5 -78 -3
-94 16 -134 27 -57 83 -87 158 -87 55 0 101 24 137 73 32 43 35 182 6 260 -29
78 -76 136 -135 170 -45 25 -58 27 -127 24 -376 -18 -594 -589 -453 -1184 14
-57 38 -138 55 -180 36 -95 37 -108 4 -219 -47 -165 -134 -312 -263 -447 -137
-143 -282 -245 -496 -348 -116 -56 -357 -143 -377 -137 -5 2 21 39 57 83 203
243 392 598 488 915 75 246 102 448 94 685 -8 242 -50 415 -144 598 -81 157
-223 328 -339 407 -70 49 -202 108 -288 130 -99 25 -282 27 -394 4 -354 -72
-769 -391 -1034 -793 -113 -171 -180 -327 -220 -514 -17 -82 -22 -135 -22
-267 0 -91 6 -185 12 -210 6 -25 7 -46 3 -48 -27 -9 -140 -84 -190 -126 -149
-123 -314 -380 -412 -643 -19 -51 -36 -93 -39 -92 -3 0 -22 36 -43 79 -52 105
-121 181 -202 221 -60 29 -70 31 -144 27 -63 -4 -93 -11 -152 -40 -142 -67
-266 -184 -376 -353 -26 -38 -50 -74 -54 -79 -4 -5 1 31 11 80 11 49 42 199
70 334 29 135 117 538 196 895 430 1927 394 1763 603 2770 174 836 288 1360
412 1893 39 167 69 306 66 309 -3 2 -19 -3 -35 -12 -28 -17 -32 -30 -96 -284
-36 -146 -138 -543 -226 -881 -207 -795 -308 -1199 -414 -1655 -47 -203 -159
-676 -250 -1050 -252 -1042 -320 -1342 -436 -1935 -163 -834 -309 -1349 -475
-1680 l-45 -89 -57 -17 c-271 -79 -667 -317 -880 -531 -139 -139 -253 -329
-294 -492 -11 -45 -19 -84 -17 -87 3 -2 50 28 106 66 66 46 103 78 106 93 3
12 7 38 10 57 11 65 64 159 123 219 137 136 336 230 648 307 129 31 404 78
412 70 6 -5 -136 -393 -202 -552 -74 -178 -223 -488 -305 -629 -256 -445 -572
-797 -920 -1025 -176 -115 -285 -157 -431 -167 -219 -15 -440 101 -525 273
-25 52 -29 70 -29 149 0 74 4 98 23 137 52 106 155 188 263 208 109 21 280
-33 358 -114 l35 -36 -70 0 c-84 0 -153 -29 -213 -89 -167 -167 -83 -391 147
-391 59 0 80 5 140 35 86 44 162 123 206 215 28 59 31 74 31 160 0 80 -4 103
-25 145 -73 151 -306 285 -493 285 -156 -1 -307 -70 -438 -200 -132 -131 -210
-269 -244 -428 -46 -220 4 -405 149 -547 234 -231 598 -246 1000 -40 110 56
258 153 361 236 l80 65 50 -19 c80 -31 222 -34 325 -8 200 50 393 172 608 384
192 189 336 387 452 620 95 192 236 623 404 1237 l64 234 123 51 c621 258
1042 583 1267 979 79 138 142 328 142 431 l0 40 -40 -73 c-90 -165 -207 -317
-356 -463 -122 -119 -233 -204 -373 -287 -88 -51 -290 -142 -318 -142 -7 0 2
29 22 73 48 103 75 189 144 452 130 500 227 756 358 954 111 167 353 378 353
307 0 -8 21 -56 46 -106 108 -216 321 -341 554 -327 142 8 239 58 282 145 19
40 23 63 23 152 0 98 -2 110 -32 173 -43 90 -111 155 -216 207 -142 69 -279
74 -466 15 -45 -15 -85 -25 -87 -22 -14 14 -35 179 -35 277 -1 272 98 501 305
705 192 190 534 375 773 416 98 17 292 6 378 -21 261 -83 465 -285 566 -561
138 -379 105 -836 -92 -1248 -133 -280 -347 -532 -595 -700 -52 -35 -69 -41
-112 -41 -82 0 -269 -28 -372 -55 -207 -55 -381 -140 -536 -261 -204 -159
-374 -413 -414 -621 -13 -67 -9 -218 6 -233 5 -5 49 49 109 136 l100 145 -3
57 c-6 107 36 192 125 253 92 64 233 102 633 174 80 14 236 48 348 75 190 47
546 145 564 156 13 8 11 -4 -32 -199 -102 -457 -223 -815 -415 -1227 -244
-522 -488 -874 -735 -1061 -174 -132 -365 -185 -519 -144 -132 35 -261 135
-314 245 -47 97 -53 152 -28 248 50 194 144 297 316 348 84 25 234 25 297 1
87 -34 138 -117 138 -226 l0 -52 -32 24 c-47 35 -91 47 -167 47 -117 -1 -195
-58 -227 -167 -34 -116 6 -220 106 -277 49 -28 63 -31 135 -30 99 0 157 25
231 99 92 91 154 263 154 426 0 259 -153 409 -420 409 -201 0 -402 -102 -555
-281 -115 -135 -195 -393 -195 -628 1 -277 123 -441 380 -507 102 -26 269 -16
382 23 376 130 749 546 1076 1198 262 525 465 1177 546 1756 6 44 9 47 58 70
285 132 574 388 761 672 58 88 151 266 182 350 10 26 21 44 25 40 4 -4 29 -39
55 -78 97 -139 191 -215 264 -215 53 0 164 65 253 148 177 167 325 461 418
827 16 66 30 130 30 143 0 58 18 9 47 -131 61 -289 132 -467 187 -467 32 0
150 126 228 243 77 117 190 350 262 538 47 125 136 405 177 559 6 25 13 41 15
35 15 -43 86 -480 91 -555 5 -82 -8 -290 -23 -384 -4 -25 1 -19 28 29 78 140
194 235 632 515 265 169 299 194 402 295 214 210 361 494 410 793 27 162 21
153 54 94 103 -189 207 -248 310 -177 114 79 217 215 258 340 41 123 72 335
72 489 0 126 -10 130 -42 20 -37 -126 -114 -285 -167 -346 -86 -97 -172 -99
-262 -7 -92 94 -179 269 -275 553 -85 251 -127 411 -120 458 8 47 55 153 83
188 67 81 224 -33 581 -425 504 -552 611 -619 690 -434 45 105 106 423 127
664 3 39 8 80 11 93 5 23 5 23 42 -10 108 -97 211 -148 303 -148 104 0 168 50
237 186 86 170 123 482 102 856 -6 112 -13 221 -16 243 l-5 40 17 -29 c26 -47
270 -565 359 -766 240 -540 390 -978 470 -1374 60 -298 70 -407 70 -731 -1
-264 -3 -306 -28 -470 -37 -239 -69 -379 -128 -560 -94 -285 -236 -530 -409
-705 -70 -70 -206 -175 -248 -191 -5 -2 -12 -57 -16 -122 l-7 -117 53 31 c389
228 674 691 833 1352 125 519 169 1179 105 1587 -125 811 -428 1580 -1002
2547 -213 360 -331 594 -380 755 -12 43 -27 78 -31 78 -21 0 -51 -99 -55 -183
-6 -118 7 -176 93 -419 87 -243 117 -351 145 -510 77 -456 31 -886 -111 -1024
-52 -50 -96 -52 -192 -7 -224 106 -451 391 -518 650 -44 172 -6 341 103 460
l42 44 26 -75 c33 -94 70 -143 128 -168 38 -17 51 -19 83 -9 74 22 116 107
105 213 -11 113 -85 246 -157 283 -15 8 -54 15 -86 15 -46 0 -69 -6 -109 -30
-113 -64 -227 -236 -275 -415 -30 -110 -33 -359 -5 -485 24 -114 70 -257 112
-347 63 -138 179 -292 269 -357 19 -14 19 -16 1 -147 -32 -242 -50 -296 -108
-320 -24 -10 -40 -10 -77 0 -110 29 -216 116 -557 453 -233 230 -280 272 -335
298 -149 70 -291 22 -390 -131 -17 -27 -33 -48 -34 -47 -9 9 -285 1080 -510
1973 -249 993 -395 1642 -488 2185 -1 10 -11 3 -28 -20 l-27 -35 14 -135 c67
-646 160 -1176 430 -2465 276 -1313 519 -2197 781 -2835 36 -88 55 -147 54
-170 -3 -52 -56 -203 -98 -278 -48 -85 -133 -192 -216 -269 -67 -62 -155 -128
-162 -121 -3 2 4 46 15 97 33 161 44 280 44 471 -1 204 -16 322 -60 462 -59
189 -158 319 -292 386 -183 90 -356 36 -501 -154 -58 -77 -160 -272 -187 -358
-10 -31 -20 -56 -24 -56 -3 0 -14 48 -24 108 -30 182 -171 955 -255 1402 -119
632 -165 953 -311 2150 -95 775 -118 955 -171 1317 -21 149 -39 277 -39 284 0
7 -11 2 -25 -11 -19 -18 -25 -34 -25 -64 0 -154 191 -2090 286 -2896 99 -848
332 -2323 468 -2965 l25 -118 -20 -91 c-98 -444 -292 -901 -442 -1044 -26 -26
-40 -32 -56 -27 -46 14 -95 159 -160 475 -17 80 -55 258 -85 395 -213 970
-322 1868 -451 3740 -49 714 -62 845 -190 1905 -109 903 -163 1413 -181 1698
-4 61 -10 112 -13 112 -3 0 -25 -24 -48 -53z m2298 -6124 c83 -41 188 -152
238 -254 70 -143 85 -216 85 -424 0 -147 -4 -198 -22 -280 -44 -203 -36 -190
-169 -280 -64 -44 -194 -135 -287 -202 -94 -67 -172 -119 -173 -115 -1 4 -23
132 -48 285 -25 153 -66 382 -91 510 l-45 231 31 101 c40 127 118 286 171 348
91 106 200 134 310 80z m-5036 -2826 c78 -21 135 -55 190 -112 87 -89 95 -152
24 -187 -104 -54 -320 11 -438 131 -60 60 -118 155 -101 166 42 26 230 27 325
2z m-1654 -884 c152 -82 251 -289 234 -488 -14 -161 -83 -365 -181 -536 l-45
-77 -112 -31 c-142 -39 -234 -58 -372 -77 -60 -8 -168 -27 -238 -41 -71 -14
-130 -23 -133 -21 -2 3 7 36 22 74 41 110 121 380 184 626 51 198 63 233 98
285 118 174 243 281 367 314 49 13 122 2 176 -28z m-331 -1564 c0 -16 -67
-277 -121 -474 -196 -706 -364 -1052 -653 -1340 -193 -192 -396 -287 -547
-256 -92 19 -97 27 -48 86 53 63 190 272 256 390 181 324 429 890 598 1365 27
74 53 140 59 146 6 6 61 19 121 28 61 9 157 27 215 40 58 13 108 24 113 25 4
0 7 -4 7 -10z"/>
<path d="M5526 13708 c316 -181 544 -423 588 -625 l7 -32 -33 10 c-68 20 -378
79 -498 95 -174 24 -476 24 -585 0 -97 -21 -188 -61 -239 -106 -88 -78 -119
-220 -78 -357 83 -271 486 -546 1112 -758 169 -58 168 -55 25 -76 -126 -18
-299 -64 -379 -103 -140 -67 -179 -147 -117 -233 80 -111 426 -282 906 -448
l180 -63 -45 -12 c-152 -40 -302 -112 -363 -173 -74 -74 -83 -139 -39 -252 98
-248 387 -471 783 -602 63 -21 116 -39 118 -41 3 -1 -6 -10 -20 -19 -47 -32
-135 -129 -157 -174 -41 -85 -23 -144 65 -213 108 -86 395 -213 708 -316 72
-23 134 -46 138 -50 11 -9 -177 -55 -286 -69 -43 -6 -113 -11 -154 -11 l-76 0
39 -29 c57 -42 142 -134 304 -326 313 -371 560 -634 695 -740 274 -215 611
-350 1003 -403 l127 -17 -65 -24 c-225 -81 -350 -167 -350 -241 0 -31 72 -103
140 -139 141 -75 446 -156 780 -206 267 -40 258 -30 85 -107 -660 -293 -1248
-469 -1905 -570 -125 -19 -187 -22 -455 -22 -320 -1 -405 6 -595 46 -235 49
-453 143 -552 235 l-27 25 -50 -18 c-28 -10 -51 -22 -51 -26 0 -4 32 -29 72
-54 662 -425 1594 -487 2643 -177 248 73 889 306 1531 556 308 120 325 126
429 136 325 33 592 -1 713 -90 123 -90 133 -270 28 -484 -132 -267 -434 -461
-687 -442 -124 10 -265 73 -339 152 -22 23 -22 25 -4 31 141 44 217 136 218
264 1 76 -20 121 -75 158 -30 21 -42 23 -114 19 -136 -7 -246 -74 -303 -181
-25 -46 -27 -61 -27 -161 0 -103 2 -113 30 -163 57 -105 181 -186 355 -234 75
-20 107 -23 275 -22 181 0 196 2 306 31 378 103 694 311 844 558 39 64 46 71
91 84 30 9 97 14 174 14 137 0 230 -21 367 -83 143 -65 426 -282 391 -300 -7
-4 -179 -58 -383 -119 -391 -118 -517 -166 -655 -247 -115 -67 -245 -196 -288
-284 -37 -79 -56 -175 -47 -244 9 -73 58 -169 104 -206 55 -43 153 -87 241
-106 103 -24 413 -24 559 -1 57 10 106 15 108 13 3 -2 -5 -22 -15 -43 -36 -69
-55 -152 -49 -211 11 -100 79 -166 210 -202 l60 -16 -214 -106 c-616 -305
-1200 -498 -1702 -563 -359 -46 -792 17 -1051 153 -86 45 -193 148 -224 214
-44 96 -47 254 -7 368 83 238 354 316 534 154 32 -29 63 -70 86 -116 37 -74
44 -124 24 -175 -9 -26 -11 -26 -21 -10 -28 50 -182 74 -271 43 -107 -39 -162
-112 -161 -216 2 -176 149 -265 358 -216 211 50 382 217 394 387 9 128 -62
294 -171 399 -113 109 -240 159 -417 167 -101 4 -127 1 -215 -21 -57 -15 -143
-47 -200 -76 -240 -120 -368 -292 -382 -515 -23 -349 205 -586 660 -684 242
-52 604 -73 845 -47 659 70 1325 283 2243 716 l206 97 119 6 c130 6 285 41
427 95 42 17 77 29 77 27 0 -2 -29 -24 -65 -50 -170 -121 -275 -232 -275 -290
0 -62 70 -118 190 -152 94 -26 480 -26 666 1 72 10 136 21 141 25 12 8 84 103
80 107 -1 1 -36 -2 -77 -7 -127 -18 -386 -15 -454 3 -141 40 -141 113 -3 256
108 112 294 239 725 494 311 184 449 253 659 328 l103 36 -138 11 c-536 45
-1101 299 -1860 836 -190 135 -275 186 -432 261 -274 130 -598 206 -874 206
l-104 0 -4 103 c-3 90 -7 108 -33 156 -39 72 -102 124 -210 176 -158 76 -307
105 -582 112 -112 3 -203 8 -203 12 0 3 168 90 373 193 455 229 832 424 1887
978 893 468 1072 559 1385 705 282 131 776 349 1068 471 130 54 237 101 237
105 0 3 -17 15 -38 27 l-38 21 -689 -295 c-893 -382 -1055 -453 -1500 -654
-699 -317 -1379 -637 -2847 -1338 l-796 -381 -132 19 c-294 44 -523 105 -598
160 -57 41 -57 74 -1 135 78 84 226 163 627 334 242 103 330 132 505 166 116
23 353 51 477 57 l55 3 -90 38 c-254 109 -461 146 -645 116 -136 -21 -471
-150 -805 -308 l-128 -61 -98 15 c-334 50 -618 177 -917 410 -8 7 69 9 235 7
375 -6 590 29 789 127 133 66 209 138 261 247 36 74 38 85 38 174 0 110 -20
165 -94 258 -109 137 -414 299 -701 373 -43 11 -44 12 -20 21 43 16 937 271
1325 378 512 140 2051 550 2723 725 1043 272 1731 440 2272 556 135 29 249 56
253 60 5 4 -11 19 -35 33 l-44 26 -275 -56 c-762 -154 -1419 -303 -2739 -620
-377 -91 -845 -203 -1040 -250 -945 -225 -2588 -663 -3318 -885 -72 -22 -74
-22 -150 -5 -207 48 -596 195 -682 257 -45 33 -80 83 -80 115 0 78 110 197
395 424 313 250 392 325 443 426 85 166 15 365 -177 504 l-62 45 113 22 c318
62 885 149 1263 193 265 31 915 76 1455 101 269 12 1091 16 1210 5 l75 -7 -36
34 c-39 38 3 31 -384 59 -375 27 -1669 10 -2470 -32 -666 -36 -1392 -130
-2056 -268 l-187 -38 -105 17 c-297 51 -708 193 -814 283 -43 36 -42 61 6 106
51 49 156 92 421 173 579 178 1141 302 2035 451 849 142 1614 256 1980 296
466 50 981 76 1310 65 l210 -7 -37 38 -37 38 -238 4 c-378 7 -927 -18 -1513
-68 -1100 -95 -1862 -193 -2635 -340 l-210 -40 -98 98 c-192 189 -271 300
-412 581 -190 378 -383 615 -630 773 -162 104 -328 167 -509 192 -35 5 -31 1
50 -46z m512 -808 c120 -16 149 -26 157 -58 11 -47 101 -218 158 -305 110
-165 259 -314 427 -428 l65 -44 -105 -18 c-141 -24 -499 -34 -640 -18 -379 43
-678 172 -892 383 -78 77 -128 157 -128 206 -1 175 544 336 958 282z m1511
-1955 c239 -76 276 -229 98 -408 -71 -71 -295 -253 -472 -382 l-120 -87 -62 6
c-93 10 -226 51 -330 101 -200 98 -309 276 -245 402 77 150 395 278 911 368
75 13 137 24 138 24 1 1 38 -10 82 -24z m1269 -1801 c347 -90 545 -242 545
-419 1 -147 -124 -319 -295 -406 -164 -84 -468 -104 -732 -50 -98 20 -100 21
-159 78 -143 141 -396 447 -455 552 l-23 40 28 7 c77 16 617 159 748 197 168
48 162 48 343 1z m4601 -3232 c141 -105 360 -255 411 -282 23 -12 16 -15 -105
-55 -329 -107 -598 -251 -746 -398 -63 -63 -66 -65 -156 -86 -202 -47 -382
-45 -496 6 -140 63 -194 210 -127 348 31 64 130 167 227 237 183 132 518 274
778 331 55 12 70 5 214 -101z m659 -421 c266 -132 660 -251 835 -251 26 0 37
-4 32 -9 -22 -22 -302 -180 -480 -272 -324 -166 -604 -276 -819 -320 -131 -27
-288 -24 -357 8 -93 42 -157 139 -147 226 10 85 51 153 156 257 114 113 234
196 417 285 100 50 255 112 283 115 1 0 37 -17 80 -39z"/>
<path d="M43922 13728 c-20 -20 -14 -112 13 -183 82 -218 317 -468 538 -571
60 -28 141 -32 174 -9 51 36 54 151 5 247 -39 76 -66 92 -172 99 -129 9 -198
44 -310 157 -52 53 -103 116 -129 162 -24 41 -51 83 -59 93 -18 20 -43 22 -60
5z"/>
<path d="M3479 13309 c-53 -7 -165 -42 -177 -54 -3 -3 13 -5 34 -5 99 0 242
-82 336 -192 115 -135 220 -329 299 -553 175 -497 391 -888 631 -1141 100
-106 184 -167 313 -229 179 -87 346 -126 534 -124 l106 0 -110 29 c-390 100
-649 327 -862 755 -73 147 -134 297 -248 610 -111 305 -135 366 -186 468 -125
248 -293 398 -487 433 -86 15 -102 15 -183 3z"/>
<path d="M43920 13211 c-30 -57 1 -136 105 -271 114 -147 170 -239 271 -444
80 -161 110 -211 158 -263 32 -35 71 -70 87 -78 64 -34 109 -6 109 67 0 59
-65 248 -108 314 -21 32 -112 136 -201 229 -122 128 -183 202 -249 299 -47 72
-94 138 -104 148 -24 24 -55 23 -68 -1z"/>
<path d="M43676 13054 c-34 -34 -17 -88 52 -168 105 -120 177 -305 191 -493
18 -229 97 -344 205 -299 119 49 109 250 -24 521 -51 103 -185 293 -268 378
-72 75 -123 95 -156 61z"/>
<path d="M2810 12390 c-53 -53 25 -162 162 -225 104 -48 160 -56 423 -65 261
-9 336 -19 469 -65 111 -38 156 -30 156 29 0 74 -233 180 -550 251 -171 38
-453 85 -551 92 -80 5 -88 4 -109 -17z"/>
<path d="M25608 8973 c-34 -4 -49 -19 -219 -221 -101 -119 -375 -442 -609
-717 -990 -1162 -1080 -1275 -2250 -2835 -957 -1276 -960 -1280 -1017 -1308
-159 -80 -304 -107 -528 -99 -247 9 -441 44 -915 162 -336 85 -444 103 -655
112 -340 13 -640 -46 -913 -183 -154 -77 -215 -119 -106 -74 186 77 443 77
684 -2 36 -11 69 -23 73 -25 5 -3 -17 -20 -48 -39 -138 -83 -343 -252 -478
-394 l-78 -80 -152 -51 c-284 -95 -577 -160 -733 -163 -105 -1 -118 8 -111 79
10 102 117 283 304 515 185 230 368 409 586 574 103 78 106 81 76 84 -106 11
-324 -84 -504 -220 -109 -82 -334 -298 -410 -395 -43 -55 -173 -143 -370 -252
-298 -165 -588 -244 -691 -188 -77 41 -109 113 -101 226 22 330 367 789 667
888 65 21 219 24 264 5 l28 -12 -61 -31 c-63 -32 -90 -60 -109 -118 -29 -84 5
-199 71 -239 102 -64 278 29 352 183 33 70 44 172 25 229 -41 124 -187 186
-410 173 -163 -10 -288 -51 -472 -155 -145 -82 -259 -171 -403 -316 -148 -149
-228 -255 -302 -404 -145 -288 -98 -526 125 -630 54 -26 64 -27 217 -27 147 1
169 3 275 32 141 38 267 87 430 167 69 33 129 62 134 65 5 2 -25 -39 -66 -90
-155 -195 -221 -315 -197 -360 19 -36 68 -52 159 -51 47 0 109 6 139 12 30 5
57 8 60 5 8 -9 -235 -242 -371 -356 -440 -368 -1079 -752 -1469 -882 -258 -86
-531 -119 -699 -83 -137 29 -240 93 -302 188 -125 191 -107 431 44 582 105
105 288 139 416 79 97 -46 194 -193 196 -297 0 -46 -18 -116 -31 -116 -3 0
-14 11 -24 24 -57 73 -213 92 -328 41 -108 -49 -159 -132 -148 -242 10 -93 70
-146 180 -159 231 -27 519 165 571 380 16 67 7 194 -18 268 -64 183 -192 282
-398 308 -313 39 -659 -143 -793 -415 -49 -99 -65 -172 -65 -295 0 -286 130
-457 405 -532 116 -32 414 -32 596 0 289 50 538 126 754 232 501 245 971 594
1571 1166 l171 163 239 66 c131 37 294 84 362 105 67 20 122 36 122 34 0 -3
-18 -30 -40 -62 -21 -32 -55 -92 -75 -133 -86 -182 -43 -316 121 -379 153 -58
493 -29 848 73 l111 32 0 -90 c0 -81 3 -95 28 -138 106 -181 383 -165 839 47
76 36 261 133 345 182 l43 26 -80 -111 c-121 -171 -173 -288 -156 -355 15 -59
154 -91 292 -67 152 27 407 135 633 270 57 34 105 60 107 58 5 -5 -280 -360
-415 -517 -404 -471 -816 -873 -1244 -1217 -367 -294 -691 -468 -975 -523 -91
-18 -255 -9 -315 18 l-47 21 -95 -57 c-52 -31 -94 -61 -92 -67 2 -5 30 -23 62
-40 58 -30 60 -30 214 -29 143 0 166 3 274 32 396 107 1066 456 1486 775 397
301 788 703 1086 1116 99 137 73 126 325 137 173 8 288 -7 530 -66 414 -102
608 -124 1115 -125 427 0 518 7 805 65 482 98 925 294 1282 567 104 80 347
310 293 277 -618 -370 -1217 -594 -1590 -595 -169 0 -169 1 -63 96 49 44 139
135 201 203 395 435 526 776 397 1039 -116 236 -385 228 -762 -23 -105 -69
-239 -176 -326 -257 -29 -27 -55 -47 -57 -45 -2 2 -11 37 -19 78 -31 148 -116
279 -213 328 -94 48 -227 52 -373 12 -79 -22 -259 -104 -312 -142 -43 -30 -39
-22 78 168 723 1176 1360 1971 2708 3379 116 122 223 234 238 251 l28 30 -54
-6 -55 -6 -318 -314 c-797 -787 -1309 -1327 -1678 -1770 -71 -85 -322 -414
-559 -730 -1161 -1554 -1319 -1762 -1360 -1792 -214 -155 -574 -324 -674 -316
-35 3 -37 5 -35 36 2 42 74 193 150 314 54 85 382 547 2011 2828 936 1311
1792 2420 2536 3290 49 58 96 113 104 123 13 14 13 17 1 15 -8 -1 -31 -3 -51
-5z m-6027 -5274 c262 -52 534 -127 518 -143 -2 -2 -47 -35 -99 -71 -291 -206
-509 -424 -595 -596 -33 -64 -35 -66 -114 -102 -410 -188 -658 -147 -655 108
1 105 44 201 164 367 63 88 285 309 408 407 98 77 106 81 140 75 21 -3 125
-24 233 -45z m1772 -41 c-6 -7 -50 -67 -98 -133 -49 -66 -157 -211 -242 -321
-151 -198 -156 -203 -282 -297 -455 -340 -794 -467 -953 -355 -80 56 -110 195
-68 318 56 169 236 387 485 590 l79 65 241 1 c269 1 430 18 610 64 61 15 135
39 165 53 63 29 77 32 63 15z m2772 -342 c47 -20 104 -82 133 -145 111 -243
-73 -580 -494 -902 l-91 -69 -154 19 c-151 19 -401 44 -587 59 l-93 7 105 83
c136 108 287 266 361 377 53 80 124 230 125 263 0 24 163 154 280 222 75 44
179 86 245 100 48 11 127 4 170 -14z m-1201 -20 c63 -31 113 -86 150 -166 33
-70 35 -169 6 -262 -41 -133 -176 -318 -349 -479 l-90 -84 -343 3 c-339 4
-546 -9 -648 -38 -19 -5 -35 -9 -36 -7 -1 1 52 70 118 152 66 83 201 258 300
390 99 132 190 251 202 263 29 33 210 153 282 187 166 80 301 93 408 41z"/>
<path d="M7620 7064 c-298 -35 -650 -102 -689 -132 -63 -47 -50 -90 44 -137
50 -25 73 -30 156 -33 122 -5 210 12 424 83 201 66 282 83 435 92 129 7 144
13 138 59 -5 44 -43 64 -143 74 -118 13 -224 11 -365 -6z"/>
<path d="M16298 6655 c-331 -63 -683 -354 -764 -633 -11 -36 -15 -82 -12 -141
3 -77 7 -96 41 -164 45 -90 113 -164 188 -203 49 -26 63 -28 154 -28 79 0 112
5 156 22 197 78 359 265 359 414 0 121 -85 210 -183 191 -73 -14 -155 -78
-191 -150 -41 -81 1 -173 86 -190 l40 -8 -37 -37 c-91 -94 -193 -93 -279 3
-118 130 -138 337 -49 502 80 147 281 248 462 233 375 -31 676 -405 621 -772
-15 -96 -57 -214 -104 -292 -160 -263 -550 -491 -1121 -656 -176 -51 -425
-108 -552 -127 l-82 -12 -67 -68 -66 -67 78 19 c262 62 558 86 697 55 208 -47
241 -176 109 -429 -174 -331 -616 -742 -1082 -1005 -195 -110 -866 -390 -1229
-513 -443 -150 -801 -223 -1166 -235 -150 -5 -165 -8 -232 -36 -40 -17 -73
-34 -73 -38 0 -14 190 -25 410 -24 636 3 1354 204 2158 604 665 331 1053 608
1325 945 143 177 270 392 318 540 34 103 33 205 -3 266 -28 47 -95 91 -163
104 -27 6 -22 10 60 44 510 214 921 543 1071 856 57 118 74 188 74 305 0 115
-17 188 -70 296 -100 205 -275 353 -490 414 -99 28 -285 35 -392 15z"/>
<path d="M37736 5936 c-35 -55 -45 -163 -25 -302 29 -212 173 -508 293 -603
41 -33 98 -41 137 -21 41 23 75 139 63 218 -8 56 -38 90 -123 141 -39 23 -85
60 -104 84 -71 87 -131 241 -143 365 -3 37 -10 84 -15 105 -8 32 -14 37 -38
37 -19 0 -34 -8 -45 -24z"/>
<path d="M9220 5785 c-166 -27 -491 -108 -682 -171 -147 -48 -187 -90 -138
-142 41 -44 87 -56 210 -56 134 1 200 19 415 114 219 97 319 126 490 145 72 8
85 17 85 61 0 52 -33 64 -177 63 -65 -1 -156 -7 -203 -14z"/>
<path d="M37525 5510 c-22 -43 -18 -130 11 -255 41 -175 52 -266 59 -485 6
-212 15 -274 47 -350 39 -90 95 -117 137 -64 30 39 41 86 48 210 7 131 -4 186
-78 395 -74 207 -87 256 -109 397 -26 168 -31 182 -69 182 -24 0 -34 -7 -46
-30z"/>
<path d="M37239 5499 c-14 -26 -8 -94 16 -179 25 -92 17 -298 -15 -385 -12
-33 -33 -89 -46 -125 -31 -85 -33 -200 -4 -247 26 -43 54 -56 107 -50 113 12
167 147 166 412 0 125 -5 170 -27 270 -42 190 -86 305 -121 319 -33 12 -64 6
-76 -15z"/>
<path d="M35722 4579 c-57 -60 -76 -294 -38 -469 58 -268 181 -483 284 -497
37 -5 45 -2 76 29 57 57 84 185 51 248 -8 16 -47 55 -86 86 -38 30 -83 74 -99
96 -61 84 -102 236 -102 383 -1 55 -4 110 -9 123 -11 28 -51 29 -77 1z"/>
<path d="M28796 4310 c-37 -12 -73 -45 -99 -95 -33 -63 -31 -173 6 -248 16
-31 44 -69 62 -83 71 -54 175 -38 239 37 142 166 -9 448 -208 389z"/>
<path d="M35179 4204 c-15 -18 -16 -56 -4 -219 6 -81 3 -118 -13 -196 -19 -92
-30 -119 -100 -253 -62 -119 -64 -249 -5 -295 31 -25 91 -28 134 -5 69 35 130
187 151 373 20 187 -19 511 -71 581 -22 31 -72 38 -92 14z"/>
<path d="M35478 4198 c-42 -32 -49 -136 -21 -352 14 -114 15 -150 4 -286 -29
-352 -26 -422 20 -518 24 -49 58 -63 98 -41 34 19 65 98 85 216 19 115 12 189
-43 420 -50 214 -61 287 -61 415 0 110 -12 151 -45 156 -11 1 -28 -3 -37 -10z"/>
<path d="M22635 1298 c-166 -111 -326 -440 -351 -718 -19 -215 99 -277 248
-129 28 28 51 63 59 87 10 36 9 50 -15 125 -15 50 -26 108 -26 142 0 114 49
247 145 389 65 97 70 129 19 134 -21 2 -45 -7 -79 -30z"/>
<path d="M22015 1301 c-29 -12 -52 -40 -76 -96 -57 -131 -223 -305 -350 -368
-146 -72 -229 -160 -229 -243 0 -36 5 -47 37 -74 34 -30 40 -32 90 -27 72 7
149 53 246 146 99 94 158 173 241 322 112 198 140 301 94 333 -25 18 -25 18
-53 7z"/>
<path d="M22210 1114 c-39 -33 -96 -117 -143 -210 -54 -107 -143 -235 -266
-382 -128 -152 -161 -203 -190 -289 -35 -104 -23 -143 44 -143 63 0 228 147
292 260 17 30 64 134 103 230 88 213 121 279 199 395 79 117 82 165 11 165
-10 0 -33 -12 -50 -26z"/>
</g>
</svg>